<mxfile host="www.draw.io" modified="2020-04-28T17:44:02.283Z" agent="5.0 (Windows NT 10.0; Win64; x64) AppleWebKit/537.36 (KHTML, like Gecko) Chrome/81.0.4044.122 Safari/537.36" etag="j-JaFgWk2kYlTBAoo8ou" version="13.0.2" type="github">
  <diagram id="1UDsa8HCTR8KldJByzWu" name="Page-1">
    <mxGraphModel dx="888" dy="969" grid="1" gridSize="10" guides="1" tooltips="1" connect="1" arrows="1" fold="1" page="1" pageScale="1" pageWidth="1654" pageHeight="1169" background="none" math="0" shadow="0">
      <root>
        <mxCell id="0" />
        <mxCell id="1" parent="0" />
        <mxCell id="f7p-FH1-Mco8QtkPgqXW-9" style="edgeStyle=orthogonalEdgeStyle;rounded=0;orthogonalLoop=1;jettySize=auto;html=1;entryX=1;entryY=0.5;entryDx=0;entryDy=0;strokeWidth=2;" parent="1" source="f7p-FH1-Mco8QtkPgqXW-1" target="f7p-FH1-Mco8QtkPgqXW-2" edge="1">
          <mxGeometry relative="1" as="geometry" />
        </mxCell>
        <mxCell id="f7p-FH1-Mco8QtkPgqXW-1" value="&lt;font style=&quot;font-size: 14px&quot;&gt;Head Design and Production&lt;/font&gt;" style="rounded=1;whiteSpace=wrap;html=1;horizontal=1;direction=south;fillColor=#dae8fc;strokeColor=#6c8ebf;" parent="1" vertex="1">
          <mxGeometry x="200" y="320" width="120" height="60" as="geometry" />
        </mxCell>
        <mxCell id="f7p-FH1-Mco8QtkPgqXW-2" value="&lt;b&gt;&lt;font style=&quot;font-size: 20px&quot;&gt;Smart Pot&lt;/font&gt;&lt;/b&gt;" style="rounded=0;whiteSpace=wrap;html=1;comic=0;strokeColor=none;" parent="1" vertex="1">
          <mxGeometry x="30" y="550" width="120" height="80" as="geometry" />
        </mxCell>
        <mxCell id="f7p-FH1-Mco8QtkPgqXW-11" style="edgeStyle=orthogonalEdgeStyle;rounded=0;orthogonalLoop=1;jettySize=auto;html=1;entryX=1;entryY=0.5;entryDx=0;entryDy=0;strokeWidth=2;" parent="1" source="f7p-FH1-Mco8QtkPgqXW-3" target="f7p-FH1-Mco8QtkPgqXW-2" edge="1">
          <mxGeometry relative="1" as="geometry" />
        </mxCell>
        <mxCell id="f7p-FH1-Mco8QtkPgqXW-3" value="&lt;font style=&quot;font-size: 14px&quot;&gt;Pump and Reservoir&lt;/font&gt;" style="rounded=1;whiteSpace=wrap;html=1;fillColor=#d5e8d4;strokeColor=#82b366;" parent="1" vertex="1">
          <mxGeometry x="200" y="440" width="120" height="60" as="geometry" />
        </mxCell>
        <mxCell id="f7p-FH1-Mco8QtkPgqXW-12" style="edgeStyle=orthogonalEdgeStyle;rounded=0;orthogonalLoop=1;jettySize=auto;html=1;entryX=1;entryY=0.5;entryDx=0;entryDy=0;strokeWidth=2;" parent="1" source="f7p-FH1-Mco8QtkPgqXW-4" target="f7p-FH1-Mco8QtkPgqXW-2" edge="1">
          <mxGeometry relative="1" as="geometry" />
        </mxCell>
        <mxCell id="f7p-FH1-Mco8QtkPgqXW-4" value="&lt;font style=&quot;font-size: 14px&quot;&gt;Power, Sensors and Wiring&lt;/font&gt;" style="rounded=1;whiteSpace=wrap;html=1;fillColor=#ffe6cc;strokeColor=#d79b00;" parent="1" vertex="1">
          <mxGeometry x="200" y="560" width="120" height="60" as="geometry" />
        </mxCell>
        <mxCell id="f7p-FH1-Mco8QtkPgqXW-14" style="edgeStyle=orthogonalEdgeStyle;rounded=0;orthogonalLoop=1;jettySize=auto;html=1;entryX=1;entryY=0.5;entryDx=0;entryDy=0;strokeWidth=2;" parent="1" source="f7p-FH1-Mco8QtkPgqXW-6" target="f7p-FH1-Mco8QtkPgqXW-2" edge="1">
          <mxGeometry relative="1" as="geometry" />
        </mxCell>
        <mxCell id="f7p-FH1-Mco8QtkPgqXW-6" value="&lt;font style=&quot;font-size: 14px&quot;&gt;Overall Form &amp;amp; Integration&lt;/font&gt;" style="rounded=1;whiteSpace=wrap;html=1;fillColor=#f8cecc;strokeColor=#b85450;" parent="1" vertex="1">
          <mxGeometry x="200" y="680" width="120" height="60" as="geometry" />
        </mxCell>
        <mxCell id="f7p-FH1-Mco8QtkPgqXW-15" style="edgeStyle=orthogonalEdgeStyle;rounded=0;orthogonalLoop=1;jettySize=auto;html=1;entryX=1;entryY=0.5;entryDx=0;entryDy=0;strokeWidth=2;" parent="1" source="f7p-FH1-Mco8QtkPgqXW-7" target="f7p-FH1-Mco8QtkPgqXW-2" edge="1">
          <mxGeometry relative="1" as="geometry" />
        </mxCell>
        <mxCell id="f7p-FH1-Mco8QtkPgqXW-7" value="&lt;font style=&quot;font-size: 14px&quot;&gt;Web-UI and Database&lt;/font&gt;" style="rounded=1;whiteSpace=wrap;html=1;fillColor=#e1d5e7;strokeColor=#9673a6;" parent="1" vertex="1">
          <mxGeometry x="200" y="800" width="120" height="60" as="geometry" />
        </mxCell>
        <mxCell id="f7p-FH1-Mco8QtkPgqXW-16" style="edgeStyle=orthogonalEdgeStyle;rounded=0;orthogonalLoop=1;jettySize=auto;html=1;entryX=1;entryY=0.5;entryDx=0;entryDy=0;fontSize=11;spacing=2;strokeWidth=2;jumpStyle=none;shadow=0;targetPerimeterSpacing=0;" parent="1" source="f7p-FH1-Mco8QtkPgqXW-8" target="f7p-FH1-Mco8QtkPgqXW-2" edge="1">
          <mxGeometry relative="1" as="geometry" />
        </mxCell>
        <mxCell id="f7p-FH1-Mco8QtkPgqXW-8" value="&lt;font style=&quot;font-size: 14px&quot;&gt;Control System&lt;/font&gt;" style="rounded=1;whiteSpace=wrap;html=1;fillColor=#b0e3e6;strokeColor=#0e8088;" parent="1" vertex="1">
          <mxGeometry x="200" y="920" width="120" height="60" as="geometry" />
        </mxCell>
        <mxCell id="f7p-FH1-Mco8QtkPgqXW-17" value="" style="strokeWidth=2;html=1;shape=mxgraph.flowchart.annotation_2;align=left;labelPosition=right;pointerEvents=1;" parent="1" vertex="1">
          <mxGeometry x="320" y="320" width="50" height="60" as="geometry" />
        </mxCell>
        <mxCell id="f7p-FH1-Mco8QtkPgqXW-19" value="" style="strokeWidth=2;html=1;shape=mxgraph.flowchart.annotation_2;align=left;labelPosition=right;pointerEvents=1;" parent="1" vertex="1">
          <mxGeometry x="320" y="440" width="50" height="60" as="geometry" />
        </mxCell>
        <mxCell id="f7p-FH1-Mco8QtkPgqXW-20" value="" style="strokeWidth=2;html=1;shape=mxgraph.flowchart.annotation_2;align=left;labelPosition=right;pointerEvents=1;direction=east;flipV=1;flipH=0;" parent="1" vertex="1">
          <mxGeometry x="320" y="560" width="50" height="60" as="geometry" />
        </mxCell>
        <mxCell id="f7p-FH1-Mco8QtkPgqXW-22" value="" style="strokeWidth=2;html=1;shape=mxgraph.flowchart.annotation_2;align=left;labelPosition=right;pointerEvents=1;" parent="1" vertex="1">
          <mxGeometry x="320" y="680" width="50" height="60" as="geometry" />
        </mxCell>
        <mxCell id="f7p-FH1-Mco8QtkPgqXW-23" value="" style="strokeWidth=2;html=1;shape=mxgraph.flowchart.annotation_2;align=left;labelPosition=right;pointerEvents=1;" parent="1" vertex="1">
          <mxGeometry x="320" y="800" width="50" height="60" as="geometry" />
        </mxCell>
        <mxCell id="f7p-FH1-Mco8QtkPgqXW-24" value="" style="strokeWidth=2;html=1;shape=mxgraph.flowchart.annotation_2;align=left;labelPosition=right;pointerEvents=1;" parent="1" vertex="1">
          <mxGeometry x="320" y="920" width="50" height="60" as="geometry" />
        </mxCell>
        <mxCell id="f7p-FH1-Mco8QtkPgqXW-25" value="Sprinker" style="rounded=1;whiteSpace=wrap;html=1;" parent="1" vertex="1">
          <mxGeometry x="370" y="300" width="80" height="40" as="geometry" />
        </mxCell>
        <mxCell id="f7p-FH1-Mco8QtkPgqXW-26" value="Lighting" style="rounded=1;whiteSpace=wrap;html=1;" parent="1" vertex="1">
          <mxGeometry x="370" y="360" width="80" height="40" as="geometry" />
        </mxCell>
        <mxCell id="f7p-FH1-Mco8QtkPgqXW-28" value="Reservoir" style="rounded=1;whiteSpace=wrap;html=1;" parent="1" vertex="1">
          <mxGeometry x="370" y="420" width="80" height="40" as="geometry" />
        </mxCell>
        <mxCell id="f7p-FH1-Mco8QtkPgqXW-29" value="Pump" style="rounded=1;whiteSpace=wrap;html=1;" parent="1" vertex="1">
          <mxGeometry x="370" y="480" width="80" height="40" as="geometry" />
        </mxCell>
        <mxCell id="f7p-FH1-Mco8QtkPgqXW-30" value="Sensors" style="rounded=1;whiteSpace=wrap;html=1;" parent="1" vertex="1">
          <mxGeometry x="370" y="600" width="80" height="40" as="geometry" />
        </mxCell>
        <mxCell id="f7p-FH1-Mco8QtkPgqXW-32" value="Power and Wiring" style="rounded=1;whiteSpace=wrap;html=1;" parent="1" vertex="1">
          <mxGeometry x="370" y="540" width="80" height="40" as="geometry" />
        </mxCell>
        <mxCell id="f7p-FH1-Mco8QtkPgqXW-35" value="Pot" style="rounded=1;whiteSpace=wrap;html=1;" parent="1" vertex="1">
          <mxGeometry x="370" y="660" width="80" height="40" as="geometry" />
        </mxCell>
        <mxCell id="f7p-FH1-Mco8QtkPgqXW-36" value="Connectors" style="rounded=1;whiteSpace=wrap;html=1;" parent="1" vertex="1">
          <mxGeometry x="370" y="720" width="80" height="40" as="geometry" />
        </mxCell>
        <mxCell id="f7p-FH1-Mco8QtkPgqXW-37" value="Web Application" style="rounded=1;whiteSpace=wrap;html=1;" parent="1" vertex="1">
          <mxGeometry x="370" y="780" width="80" height="40" as="geometry" />
        </mxCell>
        <mxCell id="f7p-FH1-Mco8QtkPgqXW-38" value="Database" style="rounded=1;whiteSpace=wrap;html=1;" parent="1" vertex="1">
          <mxGeometry x="370" y="840" width="80" height="40" as="geometry" />
        </mxCell>
        <mxCell id="f7PvBhqwMWpfkkH2rrPe-37" style="edgeStyle=orthogonalEdgeStyle;rounded=0;orthogonalLoop=1;jettySize=auto;html=1;exitX=1;exitY=0.5;exitDx=0;exitDy=0;entryX=0;entryY=0.5;entryDx=0;entryDy=0;strokeWidth=2;" parent="1" source="f7p-FH1-Mco8QtkPgqXW-39" target="f7PvBhqwMWpfkkH2rrPe-35" edge="1">
          <mxGeometry relative="1" as="geometry" />
        </mxCell>
        <mxCell id="f7p-FH1-Mco8QtkPgqXW-39" value="Raspberry Pi" style="rounded=1;whiteSpace=wrap;html=1;" parent="1" vertex="1">
          <mxGeometry x="370" y="900" width="80" height="40" as="geometry" />
        </mxCell>
        <mxCell id="f7p-FH1-Mco8QtkPgqXW-40" value="I/O" style="rounded=1;whiteSpace=wrap;html=1;" parent="1" vertex="1">
          <mxGeometry x="370" y="960" width="80" height="40" as="geometry" />
        </mxCell>
        <mxCell id="f7p-FH1-Mco8QtkPgqXW-44" style="edgeStyle=orthogonalEdgeStyle;rounded=0;jumpStyle=none;orthogonalLoop=1;jettySize=auto;html=1;entryX=1;entryY=0.5;entryDx=0;entryDy=0;shadow=0;targetPerimeterSpacing=0;strokeWidth=2;fontSize=11;" parent="1" source="f7p-FH1-Mco8QtkPgqXW-41" target="f7p-FH1-Mco8QtkPgqXW-25" edge="1">
          <mxGeometry relative="1" as="geometry" />
        </mxCell>
        <mxCell id="f7p-FH1-Mco8QtkPgqXW-47" style="edgeStyle=orthogonalEdgeStyle;rounded=0;jumpStyle=none;orthogonalLoop=1;jettySize=auto;html=1;entryX=1;entryY=0.5;entryDx=0;entryDy=0;shadow=0;targetPerimeterSpacing=0;strokeWidth=2;fontSize=11;" parent="1" source="f7p-FH1-Mco8QtkPgqXW-41" target="f7p-FH1-Mco8QtkPgqXW-26" edge="1">
          <mxGeometry relative="1" as="geometry" />
        </mxCell>
        <mxCell id="f7p-FH1-Mco8QtkPgqXW-41" value="CAD Design" style="rounded=1;whiteSpace=wrap;html=1;" parent="1" vertex="1">
          <mxGeometry x="500" y="300" width="80" height="40" as="geometry" />
        </mxCell>
        <mxCell id="f7p-FH1-Mco8QtkPgqXW-43" style="edgeStyle=orthogonalEdgeStyle;rounded=0;jumpStyle=none;orthogonalLoop=1;jettySize=auto;html=1;entryX=1;entryY=0.5;entryDx=0;entryDy=0;shadow=0;targetPerimeterSpacing=0;strokeWidth=2;fontSize=11;" parent="1" source="f7p-FH1-Mco8QtkPgqXW-42" target="f7p-FH1-Mco8QtkPgqXW-26" edge="1">
          <mxGeometry relative="1" as="geometry" />
        </mxCell>
        <mxCell id="f7p-FH1-Mco8QtkPgqXW-45" style="edgeStyle=orthogonalEdgeStyle;rounded=0;jumpStyle=none;orthogonalLoop=1;jettySize=auto;html=1;entryX=1;entryY=0.5;entryDx=0;entryDy=0;shadow=0;targetPerimeterSpacing=0;strokeWidth=2;fontSize=11;" parent="1" source="f7p-FH1-Mco8QtkPgqXW-42" target="f7p-FH1-Mco8QtkPgqXW-25" edge="1">
          <mxGeometry relative="1" as="geometry" />
        </mxCell>
        <mxCell id="f7p-FH1-Mco8QtkPgqXW-42" value="3D Print" style="rounded=1;whiteSpace=wrap;html=1;" parent="1" vertex="1">
          <mxGeometry x="500" y="360" width="80" height="40" as="geometry" />
        </mxCell>
        <mxCell id="f7p-FH1-Mco8QtkPgqXW-46" style="edgeStyle=orthogonalEdgeStyle;rounded=0;jumpStyle=none;orthogonalLoop=1;jettySize=auto;html=1;exitX=0.5;exitY=1;exitDx=0;exitDy=0;shadow=0;targetPerimeterSpacing=0;strokeWidth=2;fontSize=11;" parent="1" source="f7p-FH1-Mco8QtkPgqXW-41" target="f7p-FH1-Mco8QtkPgqXW-41" edge="1">
          <mxGeometry relative="1" as="geometry" />
        </mxCell>
        <mxCell id="f7p-FH1-Mco8QtkPgqXW-49" value="" style="strokeWidth=2;html=1;shape=mxgraph.flowchart.annotation_2;align=left;labelPosition=right;pointerEvents=1;flipH=1;" parent="1" vertex="1">
          <mxGeometry x="450" y="440" width="50" height="60" as="geometry" />
        </mxCell>
        <mxCell id="f7p-FH1-Mco8QtkPgqXW-55" style="edgeStyle=orthogonalEdgeStyle;rounded=0;jumpStyle=none;orthogonalLoop=1;jettySize=auto;html=1;entryX=0;entryY=0.5;entryDx=0;entryDy=0;shadow=0;targetPerimeterSpacing=0;strokeWidth=2;fontSize=11;" parent="1" source="f7p-FH1-Mco8QtkPgqXW-51" target="f7p-FH1-Mco8QtkPgqXW-52" edge="1">
          <mxGeometry relative="1" as="geometry" />
        </mxCell>
        <mxCell id="f7p-FH1-Mco8QtkPgqXW-51" value="Selection" style="rounded=1;whiteSpace=wrap;html=1;" parent="1" vertex="1">
          <mxGeometry x="500" y="450" width="80" height="40" as="geometry" />
        </mxCell>
        <mxCell id="f7p-FH1-Mco8QtkPgqXW-52" value="Mount" style="rounded=1;whiteSpace=wrap;html=1;" parent="1" vertex="1">
          <mxGeometry x="630" y="450" width="80" height="40" as="geometry" />
        </mxCell>
        <mxCell id="f7PvBhqwMWpfkkH2rrPe-9" style="edgeStyle=orthogonalEdgeStyle;rounded=0;orthogonalLoop=1;jettySize=auto;html=1;entryX=1;entryY=0.5;entryDx=0;entryDy=0;strokeWidth=2;" parent="1" source="f7PvBhqwMWpfkkH2rrPe-1" target="f7PvBhqwMWpfkkH2rrPe-8" edge="1">
          <mxGeometry relative="1" as="geometry" />
        </mxCell>
        <mxCell id="f7PvBhqwMWpfkkH2rrPe-30" style="edgeStyle=orthogonalEdgeStyle;rounded=0;orthogonalLoop=1;jettySize=auto;html=1;strokeWidth=2;entryX=1;entryY=0.5;entryDx=0;entryDy=0;" parent="1" source="f7PvBhqwMWpfkkH2rrPe-1" target="f7PvBhqwMWpfkkH2rrPe-2" edge="1">
          <mxGeometry relative="1" as="geometry">
            <mxPoint x="670" y="870" as="targetPoint" />
          </mxGeometry>
        </mxCell>
        <mxCell id="f7PvBhqwMWpfkkH2rrPe-1" value="Spring Boot" style="rounded=1;whiteSpace=wrap;html=1;" parent="1" vertex="1">
          <mxGeometry x="630" y="780" width="80" height="40" as="geometry" />
        </mxCell>
        <mxCell id="f7PvBhqwMWpfkkH2rrPe-7" style="edgeStyle=orthogonalEdgeStyle;rounded=0;orthogonalLoop=1;jettySize=auto;html=1;entryX=1;entryY=0.5;entryDx=0;entryDy=0;strokeWidth=2;" parent="1" source="f7PvBhqwMWpfkkH2rrPe-2" target="f7p-FH1-Mco8QtkPgqXW-38" edge="1">
          <mxGeometry relative="1" as="geometry" />
        </mxCell>
        <mxCell id="f7PvBhqwMWpfkkH2rrPe-38" style="edgeStyle=orthogonalEdgeStyle;rounded=0;orthogonalLoop=1;jettySize=auto;html=1;exitX=0.5;exitY=0;exitDx=0;exitDy=0;entryX=0.5;entryY=1;entryDx=0;entryDy=0;strokeWidth=2;" parent="1" source="f7PvBhqwMWpfkkH2rrPe-2" target="f7PvBhqwMWpfkkH2rrPe-8" edge="1">
          <mxGeometry relative="1" as="geometry" />
        </mxCell>
        <mxCell id="f7PvBhqwMWpfkkH2rrPe-2" value="MySQL" style="rounded=1;whiteSpace=wrap;html=1;" parent="1" vertex="1">
          <mxGeometry x="500" y="840" width="80" height="40" as="geometry" />
        </mxCell>
        <mxCell id="f7PvBhqwMWpfkkH2rrPe-6" style="edgeStyle=orthogonalEdgeStyle;rounded=0;orthogonalLoop=1;jettySize=auto;html=1;strokeWidth=2;" parent="1" source="f7PvBhqwMWpfkkH2rrPe-3" target="f7PvBhqwMWpfkkH2rrPe-1" edge="1">
          <mxGeometry relative="1" as="geometry" />
        </mxCell>
        <mxCell id="f7PvBhqwMWpfkkH2rrPe-3" value="Java" style="rounded=1;whiteSpace=wrap;html=1;" parent="1" vertex="1">
          <mxGeometry x="760" y="780" width="80" height="40" as="geometry" />
        </mxCell>
        <mxCell id="f7PvBhqwMWpfkkH2rrPe-10" style="edgeStyle=orthogonalEdgeStyle;rounded=0;orthogonalLoop=1;jettySize=auto;html=1;entryX=1;entryY=0.5;entryDx=0;entryDy=0;strokeWidth=2;" parent="1" source="f7PvBhqwMWpfkkH2rrPe-8" target="f7p-FH1-Mco8QtkPgqXW-37" edge="1">
          <mxGeometry relative="1" as="geometry" />
        </mxCell>
        <mxCell id="f7PvBhqwMWpfkkH2rrPe-8" value="Thymeleaf" style="rounded=1;whiteSpace=wrap;html=1;" parent="1" vertex="1">
          <mxGeometry x="500" y="780" width="80" height="40" as="geometry" />
        </mxCell>
        <mxCell id="f7PvBhqwMWpfkkH2rrPe-13" style="edgeStyle=orthogonalEdgeStyle;rounded=0;orthogonalLoop=1;jettySize=auto;html=1;entryX=1;entryY=0.5;entryDx=0;entryDy=0;strokeWidth=2;" parent="1" source="f7PvBhqwMWpfkkH2rrPe-11" target="f7p-FH1-Mco8QtkPgqXW-30" edge="1">
          <mxGeometry relative="1" as="geometry" />
        </mxCell>
        <mxCell id="f7PvBhqwMWpfkkH2rrPe-16" style="edgeStyle=orthogonalEdgeStyle;rounded=0;orthogonalLoop=1;jettySize=auto;html=1;entryX=0;entryY=0.5;entryDx=0;entryDy=0;strokeWidth=2;" parent="1" source="f7PvBhqwMWpfkkH2rrPe-11" target="f7PvBhqwMWpfkkH2rrPe-15" edge="1">
          <mxGeometry relative="1" as="geometry" />
        </mxCell>
        <mxCell id="f7PvBhqwMWpfkkH2rrPe-11" value="Soil Moisture" style="rounded=1;whiteSpace=wrap;html=1;" parent="1" vertex="1">
          <mxGeometry x="500" y="600" width="80" height="40" as="geometry" />
        </mxCell>
        <mxCell id="f7PvBhqwMWpfkkH2rrPe-17" style="edgeStyle=orthogonalEdgeStyle;rounded=0;orthogonalLoop=1;jettySize=auto;html=1;entryX=1;entryY=0.5;entryDx=0;entryDy=0;strokeWidth=2;" parent="1" source="f7PvBhqwMWpfkkH2rrPe-14" target="f7p-FH1-Mco8QtkPgqXW-32" edge="1">
          <mxGeometry relative="1" as="geometry" />
        </mxCell>
        <mxCell id="f7PvBhqwMWpfkkH2rrPe-19" style="edgeStyle=orthogonalEdgeStyle;rounded=0;orthogonalLoop=1;jettySize=auto;html=1;entryX=0;entryY=0.5;entryDx=0;entryDy=0;strokeWidth=2;" parent="1" source="f7PvBhqwMWpfkkH2rrPe-14" target="f7PvBhqwMWpfkkH2rrPe-18" edge="1">
          <mxGeometry relative="1" as="geometry" />
        </mxCell>
        <mxCell id="f7PvBhqwMWpfkkH2rrPe-14" value="Power Supply" style="rounded=1;whiteSpace=wrap;html=1;" parent="1" vertex="1">
          <mxGeometry x="500" y="540" width="80" height="40" as="geometry" />
        </mxCell>
        <mxCell id="f7PvBhqwMWpfkkH2rrPe-15" value="Mount" style="rounded=1;whiteSpace=wrap;html=1;" parent="1" vertex="1">
          <mxGeometry x="630" y="600" width="80" height="40" as="geometry" />
        </mxCell>
        <mxCell id="f7PvBhqwMWpfkkH2rrPe-18" value="Mount" style="rounded=1;whiteSpace=wrap;html=1;" parent="1" vertex="1">
          <mxGeometry x="630" y="540" width="80" height="40" as="geometry" />
        </mxCell>
        <mxCell id="f7PvBhqwMWpfkkH2rrPe-21" value="&lt;font style=&quot;font-size: 21px&quot;&gt;&lt;b&gt;Smart Pot&lt;/b&gt;&lt;/font&gt;" style="ellipse;shape=cloud;whiteSpace=wrap;html=1;comic=0;fillColor=#60a917;strokeColor=#2D7600;fontColor=#ffffff;" parent="1" vertex="1">
          <mxGeometry x="10" y="530" width="150" height="120" as="geometry" />
        </mxCell>
        <mxCell id="f7PvBhqwMWpfkkH2rrPe-32" style="edgeStyle=orthogonalEdgeStyle;rounded=0;orthogonalLoop=1;jettySize=auto;html=1;entryX=1;entryY=0.5;entryDx=0;entryDy=0;strokeWidth=2;" parent="1" source="f7PvBhqwMWpfkkH2rrPe-31" target="f7p-FH1-Mco8QtkPgqXW-40" edge="1">
          <mxGeometry relative="1" as="geometry" />
        </mxCell>
        <mxCell id="f7PvBhqwMWpfkkH2rrPe-31" value="Display Screen" style="rounded=1;whiteSpace=wrap;html=1;" parent="1" vertex="1">
          <mxGeometry x="500" y="960" width="80" height="40" as="geometry" />
        </mxCell>
        <mxCell id="f7PvBhqwMWpfkkH2rrPe-33" value="Input Device" style="rounded=1;whiteSpace=wrap;html=1;" parent="1" vertex="1">
          <mxGeometry x="630" y="960" width="80" height="40" as="geometry" />
        </mxCell>
        <mxCell id="f7PvBhqwMWpfkkH2rrPe-34" value="" style="endArrow=classic;startArrow=classic;html=1;strokeWidth=2;exitX=1;exitY=0.5;exitDx=0;exitDy=0;entryX=0;entryY=0.5;entryDx=0;entryDy=0;" parent="1" source="f7PvBhqwMWpfkkH2rrPe-31" target="f7PvBhqwMWpfkkH2rrPe-33" edge="1">
          <mxGeometry width="50" height="50" relative="1" as="geometry">
            <mxPoint x="660" y="840" as="sourcePoint" />
            <mxPoint x="710" y="790" as="targetPoint" />
          </mxGeometry>
        </mxCell>
        <mxCell id="f7PvBhqwMWpfkkH2rrPe-36" style="edgeStyle=orthogonalEdgeStyle;rounded=0;orthogonalLoop=1;jettySize=auto;html=1;exitX=0.5;exitY=0;exitDx=0;exitDy=0;entryX=0.5;entryY=1;entryDx=0;entryDy=0;strokeWidth=2;" parent="1" source="f7PvBhqwMWpfkkH2rrPe-35" target="f7PvBhqwMWpfkkH2rrPe-2" edge="1">
          <mxGeometry relative="1" as="geometry" />
        </mxCell>
        <mxCell id="f7PvBhqwMWpfkkH2rrPe-40" style="edgeStyle=orthogonalEdgeStyle;rounded=0;orthogonalLoop=1;jettySize=auto;html=1;entryX=0;entryY=0.5;entryDx=0;entryDy=0;strokeWidth=2;" parent="1" source="f7PvBhqwMWpfkkH2rrPe-35" target="f7PvBhqwMWpfkkH2rrPe-39" edge="1">
          <mxGeometry relative="1" as="geometry" />
        </mxCell>
        <mxCell id="f7PvBhqwMWpfkkH2rrPe-35" value="Read Sensor Data" style="rounded=1;whiteSpace=wrap;html=1;" parent="1" vertex="1">
          <mxGeometry x="500" y="900" width="80" height="40" as="geometry" />
        </mxCell>
        <mxCell id="f7PvBhqwMWpfkkH2rrPe-39" value="Control LED and Sprinkler" style="rounded=1;whiteSpace=wrap;html=1;" parent="1" vertex="1">
          <mxGeometry x="630" y="900" width="80" height="40" as="geometry" />
        </mxCell>
        <mxCell id="f7PvBhqwMWpfkkH2rrPe-42" style="edgeStyle=orthogonalEdgeStyle;rounded=0;orthogonalLoop=1;jettySize=auto;html=1;strokeWidth=2;exitX=1;exitY=0.5;exitDx=0;exitDy=0;entryX=0;entryY=0.5;entryDx=0;entryDy=0;" parent="1" source="f7p-FH1-Mco8QtkPgqXW-35" target="f7PvBhqwMWpfkkH2rrPe-41" edge="1">
          <mxGeometry relative="1" as="geometry">
            <mxPoint x="480" y="710" as="targetPoint" />
          </mxGeometry>
        </mxCell>
        <mxCell id="f7PvBhqwMWpfkkH2rrPe-41" value="Material Selection" style="rounded=1;whiteSpace=wrap;html=1;" parent="1" vertex="1">
          <mxGeometry x="500" y="660" width="80" height="40" as="geometry" />
        </mxCell>
        <mxCell id="f7PvBhqwMWpfkkH2rrPe-44" style="edgeStyle=orthogonalEdgeStyle;rounded=0;orthogonalLoop=1;jettySize=auto;html=1;strokeWidth=2;entryX=0;entryY=0.5;entryDx=0;entryDy=0;" parent="1" target="f7PvBhqwMWpfkkH2rrPe-43" edge="1">
          <mxGeometry relative="1" as="geometry">
            <mxPoint x="450" y="740" as="sourcePoint" />
            <mxPoint x="490" y="720" as="targetPoint" />
            <Array as="points">
              <mxPoint x="450" y="740" />
            </Array>
          </mxGeometry>
        </mxCell>
        <mxCell id="f7PvBhqwMWpfkkH2rrPe-43" value="CAD Design" style="rounded=1;whiteSpace=wrap;html=1;" parent="1" vertex="1">
          <mxGeometry x="500" y="720" width="80" height="40" as="geometry" />
        </mxCell>
        <mxCell id="f7PvBhqwMWpfkkH2rrPe-46" value="" style="endArrow=classic;html=1;strokeWidth=2;exitX=0.5;exitY=1;exitDx=0;exitDy=0;entryX=0.5;entryY=0;entryDx=0;entryDy=0;" parent="1" source="f7PvBhqwMWpfkkH2rrPe-35" target="f7PvBhqwMWpfkkH2rrPe-31" edge="1">
          <mxGeometry width="50" height="50" relative="1" as="geometry">
            <mxPoint x="950" y="980" as="sourcePoint" />
            <mxPoint x="1000" y="930" as="targetPoint" />
          </mxGeometry>
        </mxCell>
        <mxCell id="1fccxUlw62URsNYC4Zd4-4" value="" style="endArrow=classic;html=1;exitX=1;exitY=0.5;exitDx=0;exitDy=0;entryX=1;entryY=0.5;entryDx=0;entryDy=0;rounded=0;strokeWidth=2;" parent="1" source="f7PvBhqwMWpfkkH2rrPe-43" target="f7p-FH1-Mco8QtkPgqXW-52" edge="1">
          <mxGeometry width="50" height="50" relative="1" as="geometry">
            <mxPoint x="670" y="620" as="sourcePoint" />
            <mxPoint x="740" y="360" as="targetPoint" />
            <Array as="points">
              <mxPoint x="740" y="740" />
              <mxPoint x="740" y="470" />
            </Array>
          </mxGeometry>
        </mxCell>
        <mxCell id="1fccxUlw62URsNYC4Zd4-5" value="" style="endArrow=classic;html=1;strokeWidth=2;exitX=0.5;exitY=0;exitDx=0;exitDy=0;entryX=0.5;entryY=1;entryDx=0;entryDy=0;" parent="1" source="f7PvBhqwMWpfkkH2rrPe-14" edge="1">
          <mxGeometry width="50" height="50" relative="1" as="geometry">
            <mxPoint x="670" y="660" as="sourcePoint" />
            <mxPoint x="540" y="520" as="targetPoint" />
          </mxGeometry>
        </mxCell>
        <mxCell id="1fccxUlw62URsNYC4Zd4-6" value="" style="endArrow=classic;html=1;strokeWidth=2;entryX=1;entryY=0.5;entryDx=0;entryDy=0;" parent="1" target="f7PvBhqwMWpfkkH2rrPe-15" edge="1">
          <mxGeometry width="50" height="50" relative="1" as="geometry">
            <mxPoint x="740" y="620" as="sourcePoint" />
            <mxPoint x="720" y="650" as="targetPoint" />
          </mxGeometry>
        </mxCell>
        <mxCell id="1fccxUlw62URsNYC4Zd4-7" value="" style="endArrow=classic;html=1;strokeWidth=2;entryX=1;entryY=0.5;entryDx=0;entryDy=0;" parent="1" target="f7PvBhqwMWpfkkH2rrPe-18" edge="1">
          <mxGeometry width="50" height="50" relative="1" as="geometry">
            <mxPoint x="740" y="560" as="sourcePoint" />
            <mxPoint x="720" y="650" as="targetPoint" />
          </mxGeometry>
        </mxCell>
        <mxCell id="1fccxUlw62URsNYC4Zd4-8" value="CAD Design" style="rounded=1;whiteSpace=wrap;html=1;" parent="1" vertex="1">
          <mxGeometry x="630" y="660" width="80" height="40" as="geometry" />
        </mxCell>
        <mxCell id="1fccxUlw62URsNYC4Zd4-10" value="" style="endArrow=classic;startArrow=classic;html=1;strokeWidth=2;exitX=1;exitY=0.5;exitDx=0;exitDy=0;entryX=0;entryY=0.5;entryDx=0;entryDy=0;" parent="1" source="f7PvBhqwMWpfkkH2rrPe-41" target="1fccxUlw62URsNYC4Zd4-8" edge="1">
          <mxGeometry width="50" height="50" relative="1" as="geometry">
            <mxPoint x="670" y="660" as="sourcePoint" />
            <mxPoint x="720" y="610" as="targetPoint" />
          </mxGeometry>
        </mxCell>
      </root>
    </mxGraphModel>
  </diagram>
</mxfile>
